Results
version=1
nRows=4
nColumns=155
inDegrees=yes
endheader
time	ground_pelvis/pelvis_tilt/value	ground_pelvis/pelvis_tilt/speed	ground_pelvis/pelvis_list/value	ground_pelvis/pelvis_list/speed	ground_pelvis/pelvis_rotation/value	ground_pelvis/pelvis_rotation/speed	ground_pelvis/pelvis_tx/value	ground_pelvis/pelvis_tx/speed	ground_pelvis/pelvis_ty/value	ground_pelvis/pelvis_ty/speed	ground_pelvis/pelvis_tz/value	ground_pelvis/pelvis_tz/speed	hip_r/hip_flexion_r/value	hip_r/hip_flexion_r/speed	hip_r/hip_adduction_r/value	hip_r/hip_adduction_r/speed	hip_r/hip_rotation_r/value	hip_r/hip_rotation_r/speed	knee_r/knee_angle_r/value	knee_r/knee_angle_r/speed	ankle_r/ankle_angle_r/value	ankle_r/ankle_angle_r/speed	subtalar_r/subtalar_angle_r/value	subtalar_r/subtalar_angle_r/speed	mtp_r/mtp_angle_r/value	mtp_r/mtp_angle_r/speed	hip_l/hip_flexion_l/value	hip_l/hip_flexion_l/speed	hip_l/hip_adduction_l/value	hip_l/hip_adduction_l/speed	hip_l/hip_rotation_l/value	hip_l/hip_rotation_l/speed	knee_l/knee_angle_l/value	knee_l/knee_angle_l/speed	ankle_l/ankle_angle_l/value	ankle_l/ankle_angle_l/speed	subtalar_l/subtalar_angle_l/value	subtalar_l/subtalar_angle_l/speed	mtp_l/mtp_angle_l/value	mtp_l/mtp_angle_l/speed	back/lumbar_extension/value	back/lumbar_extension/speed	back/lumbar_bending/value	back/lumbar_bending/speed	back/lumbar_rotation/value	back/lumbar_rotation/speed	glut_med1_r/activation	glut_med1_r/fiber_length	glut_med2_r/activation	glut_med2_r/fiber_length	glut_med3_r/activation	glut_med3_r/fiber_length	bifemlh_r/activation	bifemlh_r/fiber_length	bifemsh_r/activation	bifemsh_r/fiber_length	sar_r/activation	sar_r/fiber_length	add_mag2_r/activation	add_mag2_r/fiber_length	tfl_r/activation	tfl_r/fiber_length	pect_r/activation	pect_r/fiber_length	grac_r/activation	grac_r/fiber_length	glut_max1_r/activation	glut_max1_r/fiber_length	glut_max2_r/activation	glut_max2_r/fiber_length	glut_max3_r/activation	glut_max3_r/fiber_length	iliacus_r/activation	iliacus_r/fiber_length	psoas_r/activation	psoas_r/fiber_length	quad_fem_r/activation	quad_fem_r/fiber_length	gem_r/activation	gem_r/fiber_length	peri_r/activation	peri_r/fiber_length	rect_fem_r/activation	rect_fem_r/fiber_length	vas_int_r/activation	vas_int_r/fiber_length	med_gas_r/activation	med_gas_r/fiber_length	soleus_r/activation	soleus_r/fiber_length	tib_post_r/activation	tib_post_r/fiber_length	tib_ant_r/activation	tib_ant_r/fiber_length	glut_med1_l/activation	glut_med1_l/fiber_length	glut_med2_l/activation	glut_med2_l/fiber_length	glut_med3_l/activation	glut_med3_l/fiber_length	bifemlh_l/activation	bifemlh_l/fiber_length	bifemsh_l/activation	bifemsh_l/fiber_length	sar_l/activation	sar_l/fiber_length	add_mag2_l/activation	add_mag2_l/fiber_length	tfl_l/activation	tfl_l/fiber_length	pect_l/activation	pect_l/fiber_length	grac_l/activation	grac_l/fiber_length	glut_max1_l/activation	glut_max1_l/fiber_length	glut_max2_l/activation	glut_max2_l/fiber_length	glut_max3_l/activation	glut_max3_l/fiber_length	iliacus_l/activation	iliacus_l/fiber_length	psoas_l/activation	psoas_l/fiber_length	quad_fem_l/activation	quad_fem_l/fiber_length	gem_l/activation	gem_l/fiber_length	peri_l/activation	peri_l/fiber_length	rect_fem_l/activation	rect_fem_l/fiber_length	vas_int_l/activation	vas_int_l/fiber_length	med_gas_l/activation	med_gas_l/fiber_length	soleus_l/activation	soleus_l/fiber_length	tib_post_l/activation	tib_post_l/fiber_length	tib_ant_l/activation	tib_ant_l/fiber_length	ercspn_r/activation	ercspn_r/fiber_length	ercspn_l/activation	ercspn_l/fiber_length	intobl_r/activation	intobl_r/fiber_length	intobl_l/activation	intobl_l/fiber_length	extobl_r/activation	extobl_r/fiber_length	extobl_l/activation	extobl_l/fiber_length
      0.83000000000000007105	      4.41605185351990847664	      5.22195543784650428876	     -1.32437949475845284653	    -28.49570781070254099632	      3.40387963518405900487	     -2.30219488515430148468	      0.60596803580981473125	     -0.01670266056543836738	      1.02271154399515840083	      0.16810485239336167562	      0.02466835725354282749	      0.22205785145357498367	     14.62062059426908788851	    -99.91320278341751759399	      0.79942355109518881129	     52.71610172750049372326	     -7.20798157115723014954	     -7.42416012281420556462	    -22.92665606821162782580	     46.37887237273343288280	      4.15254513826463345083	     42.92059156825484933506	      0.00004167795604101072	      0.06700212271866469449	      0.00374105815930714757	     -0.11380590419311636952	     -0.79031641655282258707	    176.01340931081668372826	     -5.33194208347968778838	    -76.85047618470154873194	     -2.59409685709318793556	    -66.80646080664682529004	    -59.91299590574860189918	   -249.94038672738065542944	     -7.03422681562985729897	    -30.06309318633975280477	     -0.00422981122045116165	     -0.05278534867161282368	      0.03249370638327010730	      0.43914914989250247723	    -15.35080701026223870542	     -0.75912546100742051003	      4.04695828078132002759	     25.39966320875154082159	     -4.69851312319963643205	     35.76342967673305395238	      0.24423055549960276389	      0.05288249829068805002	      0.22657362441854003721	      0.08875801958068438302	      0.25234966696093191763	      0.06767945792954885298	      0.19788623035200408884	      0.10437691830799941672	      0.01999999999999999348	      0.17929706550753016225	      0.01999999999999999348	      0.50175427110554082777	      0.01999999999999999348	      0.08859972366917813480	      0.01999999999999999348	      0.11638821108256981740	      0.01999999999999999348	      0.07218267397386515793	      0.01999999999999999348	      0.34505973298633230151	      0.12474259838494368424	      0.09090109501514562207	      0.16749360309795860435	      0.10083979446788558787	      0.05786696088074087807	      0.11467339549845866065	      0.01999999999999999348	      0.10318486215534004857	      0.01999999999999999348	      0.09566855228474989425	      0.01999999999999999348	      0.04254289802297554074	      0.01999999999999999348	      0.02268456111756091131	      0.08445591144279140927	      0.02141123332968468754	      0.01999999999999999348	      0.12100138229481163799	      0.27071957278158431670	      0.09364094367238202932	      0.01999999999999999348	      0.08589586582744287990	      0.05122310804494740327	      0.04741822689704393995	      0.23208556020082446447	      0.03067233771132362591	      0.18116126309322710952	      0.07530903650669827643	      0.02776442875730130919	      0.04164149428853687607	      0.01999999999999999348	      0.07687977003537922738	      0.01999999999999999348	      0.05865337966978880629	      0.06106898108456026292	      0.07125194630333464563	      0.26909288952136217743	      0.16038981161855289659	      0.06972979009124673222	      0.50635469225748486188	      0.02499930204390104008	      0.08935795173122723645	      0.01999999999999999348	      0.12652316962492285435	      0.05064177076768576480	      0.08226861736193671892	      0.08601547947089879798	      0.32842054832942801923	      0.01999999999999999348	      0.07592810187378204456	      0.01999999999999999348	      0.08577154085558252872	      0.01999999999999999348	      0.10052327015027984203	      0.27114528809526672326	      0.11393682807412736091	      0.28734804931627455638	      0.10583241717724004016	      0.01999999999999999348	      0.05120647242498393287	      0.01999999999999999348	      0.02710528187812717010	      0.01999999999999999348	      0.01925551265645380344	      0.01999999999999999348	      0.16055695668655001196	      0.01999999999999999348	      0.12305174164270436810	      0.01999999999999999348	      0.06466815676559188597	      0.01999999999999999348	      0.04089037468880355602	      0.01999999999999999348	      0.03268616070599648232	      0.02272215629245511945	      0.08453421626671550615	      0.18768428505519138549	      0.13622844905100509050	      0.28898849770970447270	      0.13965417183311024107	      0.01999999999999999348	      0.07950888579141346391	      0.10533109576919591488	      0.09954230674802790058	      0.01999999999999999348	      0.12039362157438650291	      0.01999999999999999348	      0.12074965420321157050
      0.83005968968917687167	      4.41636361944171351723	      5.22424263075247363730	     -1.32607943245314530145	    -28.46344261227226368760	      3.40374193806618974278	     -2.31165054237206968324	      0.60596703731416368122	     -0.01675352257524381078	      1.02272157967162979908	      0.16815672327603420344	      0.02468161101543090222	      0.22203106443292167094	     14.61465610306710338762	    -99.93670693418185635437	      0.80256927402738031940	     52.68644773203244113802	     -7.20842416785545214708	     -7.40568504211688871663	    -22.92388610065661325166	     46.43327588937057015528	      4.15510590003328506015	     42.88317051362405862847	      0.00004573714880354097	      0.06935953906779275535	      0.00373384868799118974	     -0.13216593413625801756	     -0.77981166567890514152	    175.96532673750868980278	     -5.33652737720616521244	    -76.78720093754894548965	     -2.59808265730638954238	    -66.74436825866384026540	    -59.92790858002105380820	   -249.73293989435461526227	     -7.03601623927744945775	    -29.89481211024235562945	     -0.00423398904845500353	     -0.08762813060400626020	      0.03252367683630026651	      0.56622220732839445567	    -15.35085253361203427858	     -0.76618127975075467351	      4.04847303183119766601	     25.35448930174832327111	     -4.69637818361709946657	     35.77125770464711962404	      0.24462307889181097997	      0.05288366541778838359	      0.22690693597401326298	      0.08875768003605478962	      0.25263775232945734350	      0.06767825934881460670	      0.19768454941141330727	      0.10437367962615477779	      0.01999999999999999348	      0.17929833160089614363	      0.01999999999999999348	      0.50176268623409736591	      0.01999999999999999348	      0.08859283715290365568	      0.02025896397798055207	      0.11639435137714265744	      0.01999999999999999348	      0.07218301010601456402	      0.01999999999999999348	      0.34505621112371503978	      0.12479374230346314267	      0.09089763129306741019	      0.16740990191972651702	      0.10083470623124049514	      0.05784201820498545421	      0.11466269139784433795	      0.01999999999999999348	      0.10318915913309804899	      0.01999999999999999348	      0.09567281760611867636	      0.01999999999999999348	      0.04253953872118044349	      0.01999999999999999348	      0.02268383639677368918	      0.08440034052807952880	      0.02141142036220283762	      0.02001868566835731875	      0.12100489821869413187	      0.27069566274313378029	      0.09363911339678954171	      0.02077616249522548295	      0.08589876502911542033	      0.05119624441228941975	      0.04742083420385467818	      0.23181737535459845390	      0.03067553011548547828	      0.18100878777473600190	      0.07530644908690253825	      0.02830665335067826527	      0.04164260774826505918	      0.01999999999999999348	      0.07688004966636224902	      0.01999999999999999348	      0.05865262923155176861	      0.06103274240754326396	      0.07125713387542496891	      0.26898139773012819109	      0.16038267635427955193	      0.06971227785534721277	      0.50633898423675882672	      0.02510776751172176524	      0.08936622896847351560	      0.01999999999999999348	      0.12651584677422664238	      0.05064930481588682948	      0.08226719297773531225	      0.08598511617527154760	      0.32841515968024564964	      0.01999999999999999348	      0.07593351515200735813	      0.01999999999999999348	      0.08577981224965576523	      0.01999999999999999348	      0.10052563204271684760	      0.27113358015491617614	      0.11393009485739323539	      0.28732670328959281081	      0.10582582606953409854	      0.01999999999999999348	      0.05120529856266001906	      0.01999999999999999348	      0.02710302081011747161	      0.01999999999999999348	      0.01925285813791186712	      0.01999999999999999348	      0.16055891785354242662	      0.01999999999999999348	      0.12306199247907319283	      0.01999999999999999348	      0.06466088058027563701	      0.01999999999999999348	      0.04088800802421523051	      0.01999999999999999348	      0.03268557046835036950	      0.02299400883980809093	      0.08453589994458929335	      0.18757724478666260026	      0.13622688968386673092	      0.28895590774263074652	      0.13965554600470728164	      0.01999999999999999348	      0.07950718405698917191	      0.10529824376575511180	      0.09954367559856697190	      0.01999999999999999348	      0.12039000371867140948	      0.01999999999999999348	      0.12075272787878964242
      0.83011937937835367229	      4.41667551735664432044	      5.22638086998611761658	     -1.32777743993461916361	    -28.43102865049815619614	      3.40360366226733557227	     -2.32158543527878569179	      0.60596603578887942021	     -0.01680417525132903503	      1.02273161843237647695	      0.16820820265325264753	      0.02469486319504703153	      0.22200483320324998493	     14.60869021909839915452	    -99.95987207134983520973	      0.80571322545646617552	     52.65674013355712901330	     -7.20886564810695773531	     -7.38674917661791052836	    -22.92111290616827190547	     46.48699826985504302002	      4.15766465383041872172	     42.85320931817958722831	      0.00004999886843371495	      0.07375095728685854279	      0.00372476608956118097	     -0.17620720696808445105	     -0.76930978609322420159	    175.91719783162102430651	     -5.34110888710101949783	    -76.72368585363011561640	     -2.60206477215985820806	    -66.68297125509641887220	    -59.94280886294399834924	   -249.52519391886173139028	     -7.03779568131447685886	    -29.72860639597302068182	     -0.00424032222635631860	     -0.12497121294371392464	      0.03256143606494749099	      0.69999762106030360975	    -15.35089847335685142582	     -0.77308121068502111406	      4.04998507883284108999	     25.30905519141818516005	     -4.69424276454984390483	     35.77949551440183739714	      0.24509782506443980599	      0.05288481506960446277	      0.22730844698345564758	      0.08875732810818838525	      0.25298850412750822914	      0.06767705098786284956	      0.19747589387240366277	      0.10437044030113001858	      0.01999999999999999348	      0.17929959937794698321	      0.01999999999999999348	      0.50177110172168948310	      0.01999999999999999348	      0.08858595227946050588	      0.02056622144403132124	      0.11639951076496521387	      0.01999999999999999348	      0.07218334829355002591	      0.01999999999999999348	      0.34505269291422374645	      0.12485795625037277023	      0.09089415885884795376	      0.16731249288984029189	      0.10082962165842115909	      0.05781240047525206677	      0.11465199111145961408	      0.01999999999999999348	      0.10319345738605646690	      0.01999999999999999348	      0.09567708416905534863	      0.01999999999999999348	      0.04253618158360355367	      0.01999999999999999348	      0.02268311202106043298	      0.08434576297492459018	      0.02141160713961228965	      0.02004087259494196846	      0.12100838021057247484	      0.27067313584746771626	      0.09363727981358568875	      0.02169559046871336397	      0.08590078801675703202	      0.05116940576583564604	      0.04742343940497358717	      0.23154965651328140996	      0.03067871950045929913	      0.18082356085655507116	      0.07530387295851495577	      0.02895016250994608339	      0.04164355706555262354	      0.01999999999999999348	      0.07688033305257210848	      0.01999999999999999348	      0.05865188257965840007	      0.06099653903084011064	      0.07126232667565257639	      0.26885354564594438065	      0.16037555396584521339	      0.06969145920742210454	      0.50632328982554763996	      0.02523669853601476568	      0.08937405009433832537	      0.01999999999999999348	      0.12650852549453764362	      0.05065832228300732459	      0.08226576686915849923	      0.08594957023356088188	      0.32840978476016341459	      0.01999999999999999348	      0.07593892986747979856	      0.01999999999999999348	      0.08578808307967535074	      0.01999999999999999348	      0.10052841616934160562	      0.27112233952831515937	      0.11392336287730832345	      0.28730774187455399016	      0.10581923487748896850	      0.01999999999999999348	      0.05120412535640658097	      0.01999999999999999348	      0.02710076038985601704	      0.01999999999999999348	      0.01925020628034860778	      0.01999999999999999348	      0.16056087198080395972	      0.01999999999999999348	      0.12307225658205718510	      0.01999999999999999348	      0.06465361784368045539	      0.01999999999999999348	      0.04088564867205774639	      0.01999999999999999348	      0.03268498084884267907	      0.02331664968254932094	      0.08453741990567172071	      0.18745021813696033375	      0.13622533731035513238	      0.28891922656230928368	      0.13965691958137538276	      0.01999999999999999348	      0.07950548677578492263	      0.10525953992806445780	      0.09954504307322972756	      0.01999999999999999348	      0.12038638768792199463	      0.01999999999999999348	      0.12075579901076079203
      0.83040724667437704198	      4.41818133444280203292	      5.23508368915561650425	     -1.33593901548891880182	    -28.27186267166673871998	      3.40292775206639186436	     -2.37620351713984323538	      0.60596116353427120771	     -0.01704584202409246269	      1.02278007534088954955	      0.16845208301294931075	      0.02475875369002348766	      0.22188559054918494118	     14.57989941116816368094	   -100.06731861463471489060	      0.82085060177744939569	     52.51186416455237093714	     -7.21097819803355211121	     -7.28863116937711463805	    -22.90769448664455154585	     46.73695941672815479251	      4.16998937930921620421	     42.79813352482234733998	      0.00007673705477550841	      0.11797233362336052853	      0.00361098087222915020	     -0.69462190625460551452	     -0.71870252347206831089	    175.68374688513131332002	     -5.36315057429730135397	    -76.41278070821536516632	     -2.62121891380126426085	    -66.39540126923520801938	    -60.01449435470650684010	   -248.51908469395738165986	     -7.04624060776175209497	    -28.94905395533747238801	     -0.00430530720222661780	     -0.33368427857509158629	      0.03286342841803312903	      1.41466172095142939114	    -15.35112564116559852323	     -0.80480625496391178242	      4.05723873711301408207	     25.08552245859315021903	     -4.68393671192008387294	     35.82478125980520644589	      0.24733688672867301661	      0.05289013371702169092	      0.22920147159317810770	      0.08875546394657447824	      0.25464425067495460864	      0.06767109126716443213	      0.19647421957334729181	      0.10435480885962676589	      0.01999999999999999348	      0.17930573706423402758	      0.01999999999999999348	      0.50181169196308006430	      0.01999999999999999348	      0.08855277175198007777	      0.02199702127210914973	      0.11641695397545634427	      0.01999999999999999348	      0.07218500822918261228	      0.01999999999999999348	      0.34503577695813453241	      0.12515981251044533407	      0.09087729391240334520	      0.16684450903627989771	      0.10080514883537441961	      0.05766995696973579999	      0.11460043717209411618	      0.01999999999999999348	      0.10321420446772915092	      0.01999999999999999348	      0.09569767796280265193	      0.01999999999999999348	      0.04252002177518127146	      0.01999999999999999348	      0.02267962350447423614	      0.08408336487036954798	      0.02141250428414309681	      0.02014441706233720958	      0.12102474056169981731	      0.27056493298829825678	      0.09362839070234699190	      0.02595719112514058638	      0.08590550863247357893	      0.05104032018245876351	      0.04743597464252807816	      0.23026502771570997452	      0.03069405768888480365	      0.17993417738152883700	      0.07529160525131288473	      0.03194148565838189624	      0.04164668783361352017	      0.01999999999999999348	      0.07688175317052188540	      0.01999999999999999348	      0.05864833494300111805	      0.06082243425356334554	      0.07128744280612527018	      0.26823974096433522707	      0.16034137910914475489	      0.06959133475836039306	      0.50624777496752282335	      0.02583819378296403971	      0.08940799493340401138	      0.01999999999999999348	      0.12647323931785611761	      0.05070052003858133149	      0.08225886599293741330	      0.08577865139389778681	      0.32838404897887163436	      0.01999999999999999348	      0.07596506391338643527	      0.01999999999999999348	      0.08582796138295037403	      0.01999999999999999348	      0.10055054150284070680	      0.27106834494856368867	      0.11389091382101035332	      0.28721667308039916522	      0.10578744659732561284	      0.01999999999999999348	      0.05119847623786425578	      0.01999999999999999348	      0.02708986803376166319	      0.01999999999999999348	      0.01923745461125726114	      0.01999999999999999348	      0.16057019753234297310	      0.01999999999999999348	      0.12312180061776005491	      0.01999999999999999348	      0.06461877946819009899	      0.01999999999999999348	      0.04087437238769299486	      0.01999999999999999348	      0.03268214610830574157	      0.02481930831358267545	      0.08454306544083110830	      0.18684010907063103302	      0.13621794200994732926	      0.28874306876632332974	      0.13966353428016189953	      0.01999999999999999348	      0.07949736398712387020	      0.10507346195213462803	      0.09955161679627472227	      0.01999999999999999348	      0.12036897435210121288	      0.01999999999999999348	      0.12077057446521428929
